<svg width="60" height="60" viewBox="0 0 60 60" fill="none" xmlns="http://www.w3.org/2000/svg">
<path d="M49.9487 11.6469C48.5042 9.67165 46.7298 7.96033 44.7037 6.58815C43.2204 5.58388 41.6138 4.77503 39.9237 4.18162C37.6285 3.40054 35.217 3.01616 32.7927 3.04496C31.1046 3.05341 29.4238 3.26675 27.7871 3.68029C25.8082 4.20837 23.923 5.03964 22.1985 6.14458C20.3991 7.31104 18.789 8.74618 17.424 10.4001C15.9167 12.2069 14.7197 14.2513 13.8816 16.4499C13.4865 17.5134 11.9564 21.8945 12.979 27.4807C13.7607 31.7578 15.6443 34.5979 16.0879 35.247C17.018 36.6045 18.119 37.8365 19.3638 38.9127C18.4188 37.709 17.622 36.3961 16.9904 35.0021C16.64 34.2267 15.3794 31.3019 15.2855 27.2466C15.2469 25.5524 15.3625 21.6372 17.481 17.4418C19.0208 14.4218 21.2591 11.8129 24.0098 9.83177C25.6267 8.6711 27.4078 7.75824 29.2942 7.12336C31.4904 6.39947 33.2593 6.26009 34.2743 6.1877C37.7205 5.93973 40.2972 6.55272 40.9094 6.7052C42.434 7.09189 43.9089 7.65287 45.3051 8.37707C46.9947 9.25031 48.5571 10.3504 49.9487 11.6469Z" fill="#DFE9EB"/>
<path d="M8.67595 13.4551C6.94657 15.1865 5.52907 17.2034 4.4859 19.4171C3.72163 21.0371 3.16979 22.7491 2.84407 24.5105C2.42565 26.8986 2.41732 29.3407 2.81942 31.7316C3.08788 33.3981 3.55747 35.0259 4.21791 36.5793C5.04387 38.4534 6.15519 40.1882 7.51235 41.722C8.94221 43.3197 10.6082 44.6891 12.4525 45.7827C14.4697 46.9942 16.6742 47.8624 18.9759 48.3517C20.0871 48.5789 24.6522 49.4129 30.0144 47.5439C34.1205 46.113 36.6371 43.8151 37.2085 43.276C38.4071 42.1486 39.4549 40.871 40.3259 39.4749C39.2822 40.5943 38.1075 41.584 36.8274 42.4228C36.1158 42.8848 33.4205 44.5844 29.4276 45.3014C27.7572 45.6017 23.8729 46.0869 19.4018 44.6429C17.5422 44.0343 15.7759 43.1713 14.1528 42.0785C12.9717 41.287 11.874 40.3775 10.8769 39.364C9.48144 37.9459 8.3054 36.3276 7.38759 34.5625C6.33411 32.504 5.92442 30.7775 5.6934 29.7879C4.91792 26.4218 5.12661 23.7812 5.1836 23.152C5.33085 21.5845 5.65878 20.0392 6.16084 18.5469C6.76306 16.7429 7.60928 15.0297 8.67595 13.4551Z" fill="#DFE9EB"/>
<path d="M12.4678 50.7488C14.1323 52.5426 16.0937 54.0359 18.2658 55.163C19.8558 55.9882 21.5458 56.6045 23.2937 56.9966C25.664 57.5054 28.1037 57.6062 30.5079 57.2946C32.1827 57.0897 33.8266 56.6824 35.4034 56.0817C37.3076 55.3265 39.0835 54.2809 40.6677 52.9821C44.1408 50.0829 46.6113 46.1623 47.7279 41.7781C47.9974 40.6761 49.0039 36.1472 47.3428 30.7173C46.0691 26.5588 43.8682 23.959 43.3515 23.366C42.2699 22.1257 41.033 21.0301 39.6712 20.1062C40.7492 21.1935 41.6926 22.4063 42.4813 23.7187C42.9194 24.448 44.512 27.2064 45.0772 31.2232C45.3136 32.9036 45.6509 36.8033 44.0384 41.2167C42.8598 44.3948 40.9403 47.246 38.439 49.5336C36.9697 50.8739 35.3085 51.9874 33.5105 52.8373C31.4135 53.8123 29.6731 54.1557 28.6728 54.3467C25.2798 54.9943 22.6491 54.6848 22.0223 54.6047C20.4634 54.3978 18.9334 54.0122 17.4626 53.4557C15.6818 52.7859 14.0012 51.8751 12.4678 50.7488Z" fill="#DFE9EB"/>
<path d="M48.385 49.7586C50.3991 48.2873 52.1445 46.4799 53.5446 44.4157C54.5695 42.9056 55.3947 41.2691 55.9996 39.5472C56.797 37.2097 57.1892 34.7533 57.1594 32.2837C57.1508 30.5652 56.9333 28.8541 56.5117 27.188C55.9728 25.1721 55.1249 23.2519 53.9982 21.4955C52.8081 19.663 51.3444 18.0234 49.6579 16.634C47.8145 15.0977 45.7287 13.8782 43.4857 13.0253C42.4006 12.6218 37.931 11.0662 32.2323 12.1058C27.8682 12.9013 24.9712 14.8196 24.3089 15.2724C22.9243 16.2192 21.6674 17.3405 20.5693 18.6085C21.7975 17.6456 23.1371 16.834 24.5592 16.1912C25.3501 15.8338 28.3326 14.5501 32.4711 14.4554C34.2015 14.4153 38.1936 14.5324 42.4738 16.6886C44.2525 17.5944 45.8971 18.7422 47.3608 20.0994C48.4271 21.081 49.3908 22.1686 50.237 23.3453C51.4208 24.9907 52.3522 26.8037 53.0001 28.7244C53.7386 30.9615 53.8803 32.7635 53.955 33.7969C54.2076 37.307 53.5823 39.9315 53.426 40.5553C53.032 42.1084 52.4599 43.6108 51.721 45.0326C50.8296 46.7526 49.7072 48.3426 48.385 49.7586Z" fill="#DFE9EB"/>
<path d="M29.6919 35.7937C32.8843 35.7937 35.4722 33.2058 35.4722 30.0134C35.4722 26.8211 32.8843 24.2332 29.6919 24.2332C26.4995 24.2332 23.9116 26.8211 23.9116 30.0134C23.9116 33.2058 26.4995 35.7937 29.6919 35.7937Z" fill="#E9EBEC"/>
</svg>
